<svg xmlns="http://www.w3.org/2000/svg" fill="#00C1AA" viewBox="0 0 600 600">
    <g id="45323c13-1221-441e-85cb-8a12b8a16360" transform="translate(48, 48)">
        <path d="M447.998 65.649v38.265l-26.094-11.703a17.227 17.227 0 0 0-7.124-1.531c-6.844 0-13.094 4.047-15.875 10.296l-3.312 7.344h-50.155l-11.844-38.484c-1.734-5.625-7.703-8.781-13.344-7.047l-142.703 43.968a10.493 10.493 0 0 0-3.125 1.562H64.001v-42.67h-64v384.005h338.905c.062.016.125.016.188.031h.5c.188 0 .391-.016.594-.031h171.811V65.649h-64.001zm-18.5 75.609c-5.375-2.406-11.688 0-14.093 5.375l-40.219 89.687h-13.594l47.812-106.671h38.593v26.719l-35.843 79.952H398.56l36.296-80.968c2.423-5.375.017-11.687-5.358-14.094zm18.5 67.265v27.796h-12.469l12.469-27.796zm-61.968-78.874l-46.249 103.155a18.865 18.865 0 0 0-1.141 3.516h-9.578l-24.453-79.421 40.766-12.562a10.634 10.634 0 0 0 6.297-5.203 10.595 10.595 0 0 0 .765-8.125l-.406-1.359h33.999zM262.109 236.32l-18.672-60.578 40.781-12.562 22.531 73.14h-44.64zm-71.046-106.671h129.531l-130.453 40.187.922-40.187zm125.281-43.328l6.781 22h-78.203l71.422-22zm-146.625 43.328l-1.25 54.5c-.062 3.422 1.5 6.688 4.25 8.75a10.597 10.597 0 0 0 6.422 2.156 10.84 10.84 0 0 0 3.141-.469l40.781-12.562 16.718 54.296H169.75c.469-6.609.062-14.109-1.281-22.468-1.688-10.609-4.844-22.453-9.125-34.25-3.906-10.75-8.562-21-13.156-28.843-6.188-10.562-11.562-15.984-17.469-17.562a15.783 15.783 0 0 0-4.094-.531c-15.328 0-42.218 22.469-47.437 26.969-5 4.296-9.375 8.406-13.188 12.312v-42.296h105.719zm-61.749 80.984c-5.688-1.531-11.531 1.859-13.062 7.547l-4.844 18.14H64.001v-30.671c5.562-8.828 14.656-19 26.094-28.969 15.031-13.125 27.687-20.312 32.937-22.203 3.594 4.25 10.938 16.812 17.406 35.703 6.312 18.359 9.125 35.078 7.906 46.14h-36.203l3.391-12.625c1.516-5.687-1.875-11.547-7.562-13.062zM42.658 428.326H21.33V86.993h21.328V428.326zm21.343-21.328h10.656c5.891 0 10.672-4.781 10.672-10.672s-4.781-10.672-10.672-10.672H64.001v-64h53.328c5.891 0 10.672-4.766 10.672-10.656s-4.781-10.672-10.672-10.672H64.001v-42.678h383.997V279h-31.999c-5.906 0-10.672 4.766-10.672 10.654 0 5.891 4.766 10.672 10.672 10.672h31.999v85.328h-63.999c-27.188 0-40.843 14.641-47.515 26.906-3.078 5.656-4.891 11.234-5.984 15.766H64.001v-21.328zm288.748 21.328a39.75 39.75 0 0 1 2.781-6.125c5.781-10.234 15.094-15.203 28.469-15.203h63.999v21.328h-95.249zm137.905 0h-21.328V86.993h21.328v341.333z"></path>
    </g>
</svg>